<svg xmlns="http://www.w3.org/2000/svg" version="1.1" xmlns:xlink="http://www.w3.org/1999/xlink" xmlns:svgjs="http://svgjs.com/svgjs" width="100%" height="100%" viewBox="0 0 1000 600"><rect width="1000" height="600" x="0" y="0" fill="#10b981"/><g><rect width="333.3333333333333" height="333.3333333333333" rx="13.333333333333334" ry="13.333333333333334" y="177.2502079482476" fill="#f59e0b" transform="matrix(0.8063059847221814,0,0,0.8063059847221814,0,22.697754925561696)" x="155.0279998779297"/><path d="M210.1134566489556 268.91793068952467L312.35640143423166 268.91793068952467L312.35640143423166 285.8798938797087L271.1630622580704 285.8798938797087L271.1630622580704 418.91687898049753L251.30679582511686 418.91687898049753L251.30679582511686 285.8798938797087L210.1134566489556 285.8798938797087L210.1134566489556 268.91793068952467ZM363.747111337825 401.95491579031346L433.2776985420318 401.95491579031346L433.2776985420318 418.91687898049753L343.85719021600204 418.91687898049753L343.85719021600204 268.91793068952467L363.747111337825 268.91793068952467L363.747111337825 401.95491579031346Z " fill="#374151" transform="matrix(0.8063059847221814,0,0,0.8063059847221814,0,22.697754925561696)"/><path d="M571.6949464532884 283.7268758758716L662.2407396852038 283.7268758758716L662.2407396852038 298.7482977945304L625.7601435970325 298.7482977945304L625.7601435970325 416.5651248668682L608.1755425414597 416.5651248668682L608.1755425414597 298.7482977945304L571.6949464532884 298.7482977945304L571.6949464532884 283.7268758758716ZM715.4714133890226 301.54991219999454L715.4714133890226 301.54991219999454Q709.8979889866631 301.54991219999454 705.8147850127419 297.6753390860548Q701.7315810388208 293.83057038068375 701.7315810388208 287.1543828612798L701.7315810388208 287.1543828612798Q701.7315810388208 280.5079997504447 705.8147850127419 276.66323104507376Q709.8979889866631 272.7886579311339 715.4714133890226 272.7886579311339L715.4714133890226 272.7886579311339Q721.2534686513635 272.7886579311339 725.2174549910096 276.66323104507376Q729.2112457392244 280.5079997504447 729.2112457392244 287.1543828612798L729.2112457392244 287.1543828612798Q729.2112457392244 293.83057038068375 725.2174549910096 297.6753390860548Q721.2534686513635 301.54991219999454 715.4714133890226 301.54991219999454ZM710.9709476951388 378.1472422217269L710.9709476951388 331.8013868972935L682.2096934262781 331.8013868972935L682.2096934262781 316.98859583861616L728.5555487507115 316.98859583861616L728.5555487507115 378.1472422217269Q728.5555487507115 392.9600332804044 732.6387527246327 397.99697832852604Q736.7219566985539 403.0339233766478 744.8585602378273 403.0339233766478L744.8585602378273 403.0339233766478Q751.0876816286998 403.0339233766478 756.3332575368029 401.5437029482094Q761.6086378534746 400.0534825197711 764.6188831189202 398.32482682278254L764.6188831189202 398.32482682278254L767.1820622558341 413.34624874144134Q765.9004726873771 414.00194572995423 763.5459244104445 414.9556868041547Q761.1615717249431 415.9094278783553 758.0619132337913 416.77375572684963Q754.9622547426395 417.63808357534384 751.2068992629747 418.2937805638567Q747.4515437833101 418.9196731438008 743.368339809389 418.9196731438008L743.368339809389 418.9196731438008Q733.9203422930897 418.9196731438008 727.6912209022173 416.35649400688686Q721.4620995113448 413.7635104614041 717.7067440316802 408.6371521875761Q713.9513885520155 403.48098950517925 712.4611681235771 395.85106091157485Q710.9709476951388 388.2509367265391 710.9709476951388 378.1472422217269L710.9709476951388 378.1472422217269ZM850.4555797969704 418.9196731438008L850.4555797969704 418.9196731438008Q841.0075822806712 418.9196731438008 834.7784608897988 416.35649400688686Q828.5493394989264 413.7635104614041 824.9132016535367 408.6371521875761Q821.2472593995783 403.48098950517925 819.75703897114 395.85106091157485Q818.2668185427017 388.2509367265391 818.2668185427017 378.1472422217269L818.2668185427017 378.1472422217269L818.2668185427017 283.935506735853L789.505564273841 283.935506735853L789.505564273841 268.9140848171942L835.8514195982743 268.9140848171942L835.8514195982743 378.1472422217269Q835.8514195982743 385.65795318105637 836.8051606724749 390.3968541434903Q837.7887061552443 395.1059506973556 839.8154059379204 397.99697832852604Q841.8719101291654 400.8880059596965 844.8523509860422 401.96096466817215Q847.8625962514877 403.0339233766478 851.9458002254089 403.0339233766478L851.9458002254089 403.0339233766478Q858.1749216162813 403.0339233766478 863.5397151586594 401.5437029482094Q868.9045087010375 400.0534825197711 871.9147539664831 398.32482682278254L871.9147539664831 398.32482682278254L874.477933103397 413.34624874144134Q873.1963435349401 414.00194572995423 870.8417952580074 414.9556868041547Q868.4574425725059 415.9094278783553 865.2385664470792 416.77375572684963Q862.0196903216522 417.63808357534384 858.2643348419875 418.2937805638567Q854.5089793623229 418.9196731438008 850.4555797969704 418.9196731438008ZM940.7927421689046 314.6340475616834L940.7927421689046 314.6340475616834Q960.9703267699601 314.6340475616834 971.9085447146979 327.1817035691345Q982.8467626594354 339.72935957658564 982.8467626594354 365.2717377200194L982.8467626594354 365.2717377200194L982.8467626594354 371.5008591108918L911.6142261800812 371.5008591108918Q912.6871848885569 386.93954274951335 921.8073339105997 394.9867330630805Q930.9274829326425 403.0339233766478 947.4391252797398 403.0339233766478L947.4391252797398 403.0339233766478Q956.8871227960392 403.0339233766478 963.5335059068742 401.5437029482094Q970.1798890177093 400.0534825197711 973.6073960031176 398.32482682278254L973.6073960031176 398.32482682278254L975.991748688619 413.34624874144134Q972.7728725631921 415.0749044384299 964.3978337553684 416.98238658683096Q956.0227949475448 418.9196731438008 945.5018387227699 418.9196731438008L945.5018387227699 418.9196731438008Q932.6263342210623 418.9196731438008 922.8802926190754 414.9556868041547Q913.1044466085197 410.9917004645087 906.6666943576658 404.10688208512346Q900.2289421068122 397.2518681143069 897.0100659813852 387.7144573723013Q893.7911898559582 378.1472422217269 893.7911898559582 367.00039341700796L893.7911898559582 367.00039341700796Q893.7911898559582 353.6778227867689 897.8743938298794 343.8125635505068Q901.9575978038006 333.94730431424483 908.6039809146357 327.509552063391Q915.250364025471 321.0717998125372 923.6254028332946 317.8529236871104Q932.0004416411182 314.6340475616834 940.7927421689046 314.6340475616834ZM912.0314879000441 357.13513418074587L964.8150954753312 357.13513418074587Q964.8150954753312 344.4682605390197 958.1687123644961 337.0469628053966Q951.5223292536609 329.6554694803422 940.5841113089232 329.6554694803422L940.5841113089232 329.6554694803422Q934.3549899180509 329.6554694803422 929.3180448699292 332.01001775727485Q924.2512954132387 334.3645660342076 920.6151575678491 338.23913914814733Q916.9790197224595 342.11371226208706 914.8331023055082 347.03143967593377Q912.6871848885569 351.97897149834915 912.0314879000441 357.13513418074587L912.0314879000441 357.13513418074587ZM1007.7334438143564 416.5651248668682L1007.7334438143564 319.79021024408024Q1017.390072190637 317.4356619671476 1026.9572873412114 316.12426799012184Q1036.494698083217 314.84267842166486 1044.8697368910407 314.84267842166486L1044.8697368910407 314.84267842166486Q1064.808886223546 314.84267842166486 1075.0019939540646 325.1550037864584Q1085.1951016845828 335.43752474268314 1085.1951016845828 358.2080928892215L1085.1951016845828 358.2080928892215L1085.1951016845828 416.5651248668682L1067.6105006290102 416.5651248668682L1067.6105006290102 361.42696901464836Q1067.6105006290102 351.7703406383677 1065.8818449320217 345.7498501074767Q1064.182993643602 339.72935957658564 1061.0535307438813 336.4210702254525Q1057.9538722527295 333.0829764657505 1053.542819784552 331.8013868972935Q1049.161571724943 330.51979732883655 1044.0054090425465 330.51979732883655L1044.0054090425465 330.51979732883655Q1039.7135742086439 330.51979732883655 1034.8852600205034 331.0562766830744Q1030.0569458323632 331.5927560373122 1025.5564801384794 332.4570838858064L1025.5564801384794 332.4570838858064L1025.5564801384794 416.5651248668682L1007.7334438143564 416.5651248668682Z " fill="#374151" transform="matrix(0.8063059847221814,0,0,0.8063059847221814,0,22.697754925561696)"/></g></svg>